Coordinates
version=1
nRows=54
nColumns=12
inDegrees=yes

Units are S.I. units (second, meters, Newtons, ...)
Angles are in degrees

endheader
time	SC_y	SC_z	SC_x	AC_y	AC_z	AC_x	GH_y	GH_z	GH_yy	EL_x	PS_y
       0.0              -40.51          1.464          78.09          54.89          1.022          3.285         -101.1         -14.95          13.27          93.11          30.63
   0.01992              -40.51          1.469          78.09          54.88          1.021          3.282         -101.1         -14.95          13.26          93.11          30.65
   0.03984              -40.51          1.475          78.08          54.88           1.02          3.278         -101.1         -14.95          13.25          93.12          30.66
   0.05976               -40.5           1.48          78.08          54.88          1.019          3.275         -101.1         -14.95          13.24          93.12          30.67
   0.07968               -40.5          1.487          78.07          54.88          1.018          3.271         -101.2         -14.95          13.23          93.12          30.69
    0.0996              -40.49          1.493          78.06          54.88          1.017          3.268         -101.2         -14.95          13.21          93.13          30.71
    0.1195              -40.48            1.5          78.06          54.87          1.016          3.263         -101.2         -14.95           13.2          93.13          30.72
    0.1394              -40.48          1.508          78.05          54.87          1.014          3.259         -101.2         -14.95          13.19          93.13          30.74
    0.1594              -40.47          1.516          78.04          54.87          1.013          3.254         -101.2         -14.95          13.17          93.14          30.76
    0.1793              -40.46          1.524          78.03          54.87          1.011          3.249         -101.2         -14.95          13.16          93.14          30.79
    0.1992              -40.46          1.534          78.02          54.86           1.01          3.244         -101.2         -14.95          13.14          93.15          30.81
    0.2191              -40.45          1.544          78.01          54.86          1.008          3.238         -101.2         -14.95          13.12          93.15          30.83
     0.239              -40.44          1.555           78.0          54.86          1.006          3.232         -101.2         -14.95           13.1          93.16          30.86
     0.259              -40.43          1.566          77.99          54.85          1.004          3.225         -101.2         -14.96          13.08          93.16          30.89
    0.2789              -40.42          1.579          77.98          54.85          1.001          3.218         -101.2         -14.96          13.05          93.17          30.92
    0.2988              -40.41          1.592          77.96          54.85         0.9987           3.21         -101.2         -14.96          13.03          93.18          30.96
    0.3187              -40.39          1.607          77.95          54.84          0.996          3.201         -101.2         -14.96           13.0          93.19          30.99
    0.3387              -40.38          1.623          77.93          54.84          0.993          3.192         -101.3         -14.96          12.97          93.19          31.03
    0.3586              -40.37          1.641          77.91          54.83         0.9897          3.182         -101.3         -14.96          12.94           93.2          31.08
    0.3785              -40.35           1.66          77.89          54.82         0.9862          3.171         -101.3         -14.96           12.9          93.21          31.13
    0.3984              -40.33          1.682          77.87          54.82         0.9823          3.158         -101.3         -14.96          12.86          93.22          31.18
    0.4183              -40.31          1.705          77.85          54.81         0.9779          3.145         -101.3         -14.96          12.82          93.24          31.24
    0.4383              -40.29          1.731          77.82           54.8         0.9732           3.13         -101.3         -14.96          12.77          93.25           31.3
    0.4582              -40.27          1.759          77.79          54.79         0.9679          3.113         -101.4         -14.97          12.72          93.26          31.37
    0.4781              -40.24          1.791          77.76          54.78          0.962          3.095         -101.4         -14.97          12.66          93.28          31.45
     0.498              -40.21          1.827          77.72          54.77         0.9555          3.074         -101.4         -14.97          12.59           93.3          31.54
    0.5179              -40.18          1.866          77.68          54.76         0.9481          3.051         -101.5         -14.97          12.51          93.32          31.64
    0.5379              -40.14          1.911          77.64          54.74         0.9399          3.025         -101.5         -14.97          12.43          93.34          31.75
    0.5578               -40.1          1.962          77.58          54.73         0.9306          2.996         -101.5         -14.98          12.34          93.37          31.88
    0.5777              -40.05          2.019          77.52          54.71           0.92          2.963         -101.6         -14.98          12.23           93.4          32.02
    0.5976               -40.0          2.084          77.46          54.69         0.9079          2.925         -101.6         -14.98          12.11          93.43          32.19
    0.6175              -39.93          2.159          77.38          54.67          0.894          2.881         -101.7         -14.98          11.97          93.47          32.38
    0.6375              -39.86          2.246          77.29          54.64          0.878          2.831         -101.7         -14.99           11.8          93.51          32.59
    0.6574              -39.78          2.347          77.19          54.61         0.8594          2.772         -101.8         -14.99          11.61          93.56          32.85
    0.6773              -39.68          2.465          77.07          54.57         0.8377          2.704         -101.9          -15.0          11.39          93.63          33.14
    0.6972              -39.56          2.604          76.92          54.52          0.812          2.623         -102.0         -15.01          11.13           93.7          33.49
    0.7171              -39.43          2.769          76.75          54.47         0.7815          2.527         -102.2         -15.01          10.82          93.78           33.9
    0.7371              -39.26          2.967          76.55          54.41         0.7449          2.413         -102.3         -15.02          10.45          93.88           34.4
     0.757              -39.06          3.206          76.31          54.33         0.7007          2.274         -102.5         -15.04          10.01          94.01           35.0
    0.7769              -38.82          3.499          76.01          54.24         0.6467          2.104         -102.7         -15.05          9.458          94.16          35.73
    0.7968              -38.52           3.86          75.64          54.13           0.58          1.894         -103.0         -15.07          8.781          94.34          36.64
    0.8167              -38.14           4.31          75.17          53.98         0.4969          1.633         -103.4         -15.09          7.938          94.57          37.77
    0.8367              -37.67          4.877          74.59           53.8         0.3922          1.304         -103.8         -15.12          6.876          94.86          39.19
    0.8566              -37.07          5.598          73.85          53.57          0.259         0.8856         -104.4         -15.15          5.525          95.23           41.0
    0.8765               -36.3          6.521           72.9          53.28        0.08861         0.3501         -105.1          -15.2          3.797          95.71          43.31
    0.8964              -35.31          7.706          71.69           52.9        -0.1301        -0.3371         -106.0         -15.26          1.579          96.31          46.28
    0.9163              -34.05          9.218          70.14          52.42        -0.4094         -1.215         -107.2         -15.33         -1.254          97.09          50.07
    0.9363              -32.47          11.12          68.18          51.82        -0.7607         -2.319         -108.7         -15.43         -4.817          98.06          54.84
    0.9562              -30.53          13.44          65.81          51.08         -1.189         -3.664         -110.5         -15.54         -9.158          99.25          60.65
    0.9761               -28.3          16.13          63.05          50.23         -1.685         -5.223         -112.6         -15.68         -14.19          100.6          67.38
     0.996              -25.87          19.03          60.06          49.31         -2.222         -6.911         -114.9         -15.82         -19.64          102.1          74.67
     1.016              -23.45          21.94          57.08          48.38         -2.759         -8.599         -117.2         -15.96         -25.09          103.6          81.97
     1.036              -21.21          24.63          54.32          47.53         -3.255         -10.16         -119.3          -16.1         -30.12          105.0           88.7
     1.056              -19.28          26.95          51.94           46.8         -3.683          -11.5         -121.1         -16.21         -34.46          106.2          94.51
